    <svg height="312.5" width="312.5"
      style="width: 312.5px; height: 312.5px; position: absolute; top: 50%; left: 50%; transform: translate(-50%, -50%) scale(1); z-index: 0; cursor: pointer;">
      <defs id="SvgjsDefs1001">
        <lineargradient id="SvgjsLinearGradient1017">
          <stop id="SvgjsStop1018" stop-color="#8f5e25" offset="0"></stop>
          <stop id="SvgjsStop1019" stop-color="#fbf4a1" offset="0.5"></stop>
          <stop id="SvgjsStop1020" stop-color="#8f5e25" offset="1"></stop>
        </lineargradient>
        <lineargradient id="SvgjsLinearGradient1021">
          <stop id="SvgjsStop1022" stop-color="#8f5e25" offset="0"></stop>
          <stop id="SvgjsStop1023" stop-color="#fbf4a1" offset="0.5"></stop>
          <stop id="SvgjsStop1024" stop-color="#8f5e25" offset="1"></stop>
        </lineargradient>
        <lineargradient id="SvgjsLinearGradient1025">
          <stop id="SvgjsStop1026" stop-color="#b88746" offset="0"></stop>
          <stop id="SvgjsStop1027" stop-color="#fdf5a6" offset="1"></stop>
        </lineargradient>
        <lineargradient id="SvgjsLinearGradient1028">
          <stop id="SvgjsStop1029" stop-color="#8f5e25" offset="0"></stop>
          <stop id="SvgjsStop1030" stop-color="#fbf4a1" offset="0.5"></stop>
          <stop id="SvgjsStop1031" stop-color="#8f5e25" offset="1"></stop>
        </lineargradient>
        <lineargradient id="SvgjsLinearGradient1032">
          <stop id="SvgjsStop1033" stop-color="#8f5e25" offset="0"></stop>
          <stop id="SvgjsStop1034" stop-color="#fbf4a1" offset="0.5"></stop>
          <stop id="SvgjsStop1035" stop-color="#8f5e25" offset="1"></stop>
        </lineargradient>
      </defs>
      <g id="SvgjsG1007" featurekey="rootContainer" transform="matrix(2.9875715273930257,0,0,2.9875715273930257,0.00001862645013371933,0.00001862645013371933)" fill="url(#SvgjsLinearGradient1017)">
        <path xmlns="http://www.w3.org/2000/svg" d="M52.3 104.6a52.3 52.3 0 1 1 52.3-52.3 52.4 52.4 0 0 1-52.3 52.3zm0-102.3a50 50 0 1 0 50 50 50 50 0 0 0-50-50z"></path>
      </g>
      <g id="SvgjsG1008" featurekey="symbolFeature-0" transform="matrix(1.636363636363636,0,0,1.636363636363636,102.81818181818181,67.36363636363636)" fill="url(#SvgjsLinearGradient1021)">
        <g xmlns="http://www.w3.org/2000/svg">
          <g>
            <path
              d="M44.6,55c1.7-3.7,2.9-8.1,3.5-12.9c1.7-1.8,3.3-3.6,4.7-5.5c2.1,3.3,3.3,6.5,3.7,9.2c0.7,0,1.4,0.2,2.1,0.5    c-0.3-3.5-1.8-7.4-4.5-11.5c5-7.6,6-14.5,2.6-18.7c-2.5-3.2-7.1-4.3-13-3.3c-1.1-2-2.4-3.7-3.7-5c-0.2,0.7-0.5,1.4-0.8,2    c0.9,0.9,1.7,2.1,2.5,3.4c-2.8,0.7-5.6,1.8-8.6,3.3h0c-2.9-1.5-5.8-2.6-8.6-3.3c0.8-1.3,1.6-2.5,2.5-3.4c-0.4-0.6-0.7-1.3-0.8-2    c-1.4,1.3-2.6,3-3.7,5c-5.9-1-10.5,0.2-13,3.3C6.1,20.3,7,27.3,12,34.9C9.3,39,7.8,42.9,7.5,46.4c0.6-0.3,1.3-0.4,2.1-0.5    c0.3-2.8,1.6-5.9,3.7-9.2c1.4,1.9,2.9,3.7,4.7,5.5c0.6,4.8,1.8,9.2,3.5,12.9c-1.6,0.2-3.1,0.3-4.4,0.2c-0.2,0.7-0.5,1.3-0.9,1.9    c0.8,0.1,1.6,0.2,2.4,0.2c1.2,0,2.5-0.1,3.9-0.4C25.2,62.1,29,65,33,65c4,0,7.8-2.9,10.7-8.1c1.4,0.2,2.7,0.3,3.9,0.3    c0.9,0,1.7,0,2.4-0.2c-0.4-0.6-0.7-1.2-0.9-1.9C47.7,55.3,46.2,55.3,44.6,55z M42.5,54.7c-2.3-0.5-4.8-1.4-7.4-2.6    c2.6-1.4,5.1-3.1,7.5-5c1.1-0.8,2.1-1.7,3-2.6C45,48.3,44,51.7,42.5,54.7z M48.4,38.9c0.1-1.3,0.1-2.7,0.1-4c0-1.3,0-2.7-0.1-4    c1.2,1.3,2.2,2.7,3.2,4C50.6,36.2,49.5,37.6,48.4,38.9z M55,17.4c2.6,3.3,1.8,9.3-2.3,15.7c-1.3-1.9-2.9-3.7-4.7-5.5    c-0.6-4.8-1.8-9.2-3.5-12.9C49.4,14,53.1,14.9,55,17.4z M42.5,15.1C44,18,45,21.5,45.7,25.3c-1-0.9-2-1.8-3-2.6    c-2.4-1.9-4.9-3.6-7.5-5C37.7,16.5,40.2,15.6,42.5,15.1z M41.4,24.3c1.7,1.4,3.3,2.8,4.8,4.2l0,0c0.2,2.1,0.4,4.2,0.4,6.4    c0,2.2-0.1,4.3-0.4,6.4c-1.5,1.5-3.1,2.9-4.8,4.2c-2.7,2.1-5.5,4-8.4,5.5c-2.9-1.5-5.7-3.4-8.4-5.5c-1.7-1.3-3.3-2.8-4.8-4.2    c-0.2-2.1-0.4-4.2-0.4-6.3c0-2.2,0.1-4.3,0.4-6.4v0c1.5-1.5,3.1-2.9,4.8-4.2c2.7-2.1,5.5-4,8.4-5.5C35.9,20.3,38.7,22.1,41.4,24.3    z M30.8,17.7c-2.6,1.4-5.1,3.1-7.5,5c-1,0.8-2.1,1.7-3,2.6C21,21.5,22,18,23.4,15.1C25.8,15.6,28.3,16.5,30.8,17.7z M10.9,17.4    c1.9-2.5,5.6-3.4,10.4-2.7c-1.7,3.7-2.9,8.1-3.5,12.8v0c-1.8,1.8-3.3,3.6-4.7,5.5C9.2,26.6,8.3,20.7,10.9,17.4z M14.4,34.9    c1-1.4,2-2.7,3.2-4c-0.1,1.3-0.1,2.7-0.1,4c0,1.3,0.1,2.7,0.1,4C16.4,37.6,15.4,36.2,14.4,34.9z M20.3,44.4c1,0.9,2,1.8,3,2.6    c2.4,1.9,4.9,3.6,7.5,5c-2.5,1.2-5,2.1-7.4,2.6C22,51.7,21,48.2,20.3,44.4z M33,63c-3.1,0-6.1-2.3-8.6-6.5    c2.8-0.7,5.6-1.8,8.6-3.3c3,1.5,5.8,2.6,8.6,3.3C39.1,60.7,36.1,63,33,63z">
            </path>
          </g>
          <g>
            <path d="M25.1,41.3l6.9-6.9v-9.7c-5.2,0.5-9.2,4.9-9.2,10.2C22.8,37.3,23.6,39.6,25.1,41.3z"></path>
          </g>
          <g>
            <path d="M33,45.1c5.3,0,9.7-4.1,10.2-9.2h-9.7l-6.9,6.9C28.3,44.2,30.5,45.1,33,45.1z"></path>
          </g>
          <g>
            <path d="M34,24.7v9.2h9.2C42.7,29,38.8,25.2,34,24.7z"></path>
          </g>
          <g>
            <path d="M33,11.3c2.8,0,5.2-2.3,5.2-5.2S35.8,1,33,1s-5.1,2.3-5.1,5.1S30.1,11.3,33,11.3z"></path>
          </g>
          <g>
            <path d="M55.8,47.9c-2.8,0-5.2,2.3-5.2,5.2s2.3,5.2,5.2,5.2c2.8,0,5.1-2.3,5.1-5.2S58.7,47.9,55.8,47.9z"></path>
          </g>
          <g>
            <path d="M10.2,47.9C7.3,47.9,5,50.2,5,53s2.3,5.2,5.2,5.2s5.1-2.3,5.1-5.2S13,47.9,10.2,47.9z"></path>
          </g>
        </g>
      </g>
      <g id="SvgjsG1009" featurekey="nameFeature-0" transform="matrix(0.5550957238588504,0,0,0.5550957238588504,55.10691280348751,187.694113296921)" fill="url(#SvgjsLinearGradient1025)">
        <path
          d="M31.76 38.68 c0.32 0.04 0.08 1.32 -0.24 1.32 l-10.72 0 c-0.32 0 -0.56 -1.28 -0.24 -1.32 c2.04 -0.28 3.36 -1.04 3.36 -3.6 l0 -7 c-0.2 -0.68 -1.04 -0.68 -1.8 -0.68 l-10.72 0 c-0.76 0 -1.6 0 -1.8 0.68 l0 7 c0 2.8 1.6 3.36 3.32 3.6 c0.32 0.04 0.08 1.32 -0.24 1.32 l-10.68 0 c-0.32 0 -0.56 -1.28 -0.24 -1.32 c2 -0.28 3.36 -1.04 3.36 -3.6 l0 -18.2 c0 -2.52 -1.36 -3.32 -3.36 -3.6 c-0.32 -0.04 -0.08 -1.28 0.24 -1.28 l10.68 0 c0.32 0 0.56 1.24 0.24 1.28 c-1.72 0.24 -3.32 0.8 -3.32 3.6 l0 7.48 c0.2 0.68 1.04 0.68 1.8 0.68 l10.72 0 c0.76 0 1.6 0 1.8 -0.68 l0 -7.48 c0 -2.52 -1.32 -3.32 -3.36 -3.6 c-0.32 -0.04 -0.08 -1.28 0.24 -1.28 l10.72 0 c0.32 0 0.56 1.24 0.24 1.28 c-1.76 0.24 -3.36 0.8 -3.36 3.6 l0 18.2 c0 2.8 1.6 3.36 3.36 3.6 z M68.07600000000001 38.68 c0.56 0.08 0.4 1.32 -0.08 1.32 l-10.28 0 c-0.52 0 -0.56 -1.24 -0.12 -1.32 c1.52 -0.28 3.08 -0.84 1.6 -4.28 l-0.52 -1.2 c-0.4 -0.92 -1.16 -1 -2.4 -1 l-8.24 0 c-1.2 0 -1.96 0.08 -2.32 1 l-0.48 1.2 c-1.44 3.48 0.08 4 2.04 4.28 c0.48 0.08 0.4 1.32 -0.12 1.32 l-8.56 0 c-0.48 0 -0.6 -1.24 -0.12 -1.32 c1.64 -0.28 2.6 -0.88 4.12 -4.28 l6.76 -15.48 c1.56 -3.52 2.04 -5.2 2.04 -6.72 c0 -0.24 2.8 -0.88 2.92 -0.6 l9.76 22.76 c1.44 3.44 2.4 4.08 4 4.32 z M56.156000000000006 30.08 c0.56 0 1.2 -0.08 0.96 -0.64 l-4.88 -11.64 l-4.92 11.64 c-0.24 0.56 0.4 0.64 0.96 0.64 l7.88 0 z M103.672 39.04 c0.32 0 0.24 1.04 0 1.12 c-2.4 0.88 -5.8 0.68 -8.12 -2.32 l-6.2 -7.96 c-1.68 -2.2 -3.84 -2.56 -6.68 -2.6 l0 7.8 c0 2.8 1.88 3.28 4.52 3.6 c0.28 0.04 0.08 1.32 -0.24 1.32 l-11.88 0 c-0.32 0 -0.56 -1.28 -0.24 -1.32 c2 -0.28 3.36 -1.04 3.36 -3.6 l0 -17.96 c0 -2.64 -1.44 -3.4 -3.36 -3.92 c-0.32 -0.08 -0.12 -1.32 0.24 -1.28 c1.56 0.2 3.36 0.24 4.6 0.24 c2.84 0 5.48 -0.24 7.36 -0.24 c5.92 0 10 2.44 10 7.4 c0 4.68 -3.84 6.96 -7.04 7.16 l0 0.2 c1.52 0 2.64 0.68 4.36 2.84 l6.04 7.56 c1.2 1.52 2.32 1.96 3.28 1.96 z M83.872 25.52 c6 0 8.44 -1.04 8.44 -5.16 c0 -4.28 -2.8 -6.44 -6.44 -6.44 c-2.36 0 -3.2 0.96 -3.2 3.2 l0 8.4 l1.2 0 z M118.308 40.64 c-3.32 0 -8.24 -1.48 -7.76 -3.2 l0.4 -1.44 c1.08 -4.08 2.36 1.96 8.96 1.96 c3.4 0 5.2 -1.68 5.2 -4.08 c0 -1.96 -1.36 -2.8 -4.08 -4.48 l-4.16 -2.56 c-4.2 -2.6 -5.88 -4.32 -5.88 -7.24 c0 -4.84 4.68 -8.24 9.72 -8.24 c3.04 0 6.88 1.32 6.44 2.68 l-0.48 1.48 c-1.16 3.76 -2.2 -1.52 -7.68 -1.52 c-2.92 0 -4.44 1.52 -4.44 3.68 c0 1.76 1.04 2.8 3.76 4.44 l4.4 2.68 c4.16 2.56 5.84 4.36 5.84 7.2 c0 4.96 -4.88 8.64 -10.24 8.64 z M165.944 38.68 c0.32 0.04 0.08 1.32 -0.24 1.32 l-10.72 0 c-0.32 0 -0.56 -1.28 -0.24 -1.32 c2.04 -0.28 3.36 -1.04 3.36 -3.6 l0 -7 c-0.2 -0.68 -1.04 -0.68 -1.8 -0.68 l-10.72 0 c-0.76 0 -1.6 0 -1.8 0.68 l0 7 c0 2.8 1.6 3.36 3.32 3.6 c0.32 0.04 0.08 1.32 -0.24 1.32 l-10.68 0 c-0.32 0 -0.56 -1.28 -0.24 -1.32 c2 -0.28 3.36 -1.04 3.36 -3.6 l0 -18.2 c0 -2.52 -1.36 -3.32 -3.36 -3.6 c-0.32 -0.04 -0.08 -1.28 0.24 -1.28 l10.68 0 c0.32 0 0.56 1.24 0.24 1.28 c-1.72 0.24 -3.32 0.8 -3.32 3.6 l0 7.48 c0.2 0.68 1.04 0.68 1.8 0.68 l10.72 0 c0.76 0 1.6 0 1.8 -0.68 l0 -7.48 c0 -2.52 -1.32 -3.32 -3.36 -3.6 c-0.32 -0.04 -0.08 -1.28 0.24 -1.28 l10.72 0 c0.32 0 0.56 1.24 0.24 1.28 c-1.76 0.24 -3.36 0.8 -3.36 3.6 l0 18.2 c0 2.8 1.6 3.36 3.36 3.6 z M202.26 38.68 c0.56 0.08 0.4 1.32 -0.08 1.32 l-10.28 0 c-0.52 0 -0.56 -1.24 -0.12 -1.32 c1.52 -0.28 3.08 -0.84 1.6 -4.28 l-0.52 -1.2 c-0.4 -0.92 -1.16 -1 -2.4 -1 l-8.24 0 c-1.2 0 -1.96 0.08 -2.32 1 l-0.48 1.2 c-1.44 3.48 0.08 4 2.04 4.28 c0.48 0.08 0.4 1.32 -0.12 1.32 l-8.56 0 c-0.48 0 -0.6 -1.24 -0.12 -1.32 c1.64 -0.28 2.6 -0.88 4.12 -4.28 l6.76 -15.48 c1.56 -3.52 2.04 -5.2 2.04 -6.72 c0 -0.24 2.8 -0.88 2.92 -0.6 l9.76 22.76 c1.44 3.44 2.4 4.08 4 4.32 z M190.34 30.08 c0.56 0 1.2 -0.08 0.96 -0.64 l-4.88 -11.64 l-4.92 11.64 c-0.24 0.56 0.4 0.64 0.96 0.64 l7.88 0 z M208.656 40.08 c-0.4 0.04 -0.56 -1.28 -0.24 -1.36 c2.32 -0.6 4.16 -0.96 4.16 -3.92 l0 -17.92 c0 -2.8 -1.68 -3.36 -3.4 -3.6 c-0.32 -0.04 -0.08 -1.28 0.2 -1.28 l10.76 0 c0.32 0 0.52 1.24 0.24 1.28 c-1.72 0.24 -3.32 0.8 -3.32 3.6 l0 17.92 c0 2.28 1 3.08 4.4 3.08 c6.24 0 8.48 -2.68 9.44 -4.28 c0.32 -0.48 1.32 -0.28 1.32 0.4 c0 2.12 -1.68 6.08 -4.16 6.08 c-2.12 -0.12 -4.48 -0.24 -7.84 -0.24 c-3.72 0 -7.88 -0.12 -11.56 0.24 z M258.688 40.64 c-3.32 0 -8.24 -1.48 -7.76 -3.2 l0.4 -1.44 c1.08 -4.08 2.36 1.96 8.96 1.96 c3.4 0 5.2 -1.68 5.2 -4.08 c0 -1.96 -1.36 -2.8 -4.08 -4.48 l-4.16 -2.56 c-4.2 -2.6 -5.88 -4.32 -5.88 -7.24 c0 -4.84 4.68 -8.24 9.72 -8.24 c3.04 0 6.88 1.32 6.44 2.68 l-0.48 1.48 c-1.16 3.76 -2.2 -1.52 -7.68 -1.52 c-2.92 0 -4.44 1.52 -4.44 3.68 c0 1.76 1.04 2.8 3.76 4.44 l4.4 2.68 c4.16 2.56 5.84 4.36 5.84 7.2 c0 4.96 -4.88 8.64 -10.24 8.64 z M291.16400000000004 40.64 c-8.32 0 -14.4 -6.2 -14.4 -14.48 c0 -8.08 5.72 -14.8 14.48 -14.8 c8.36 0 14.4 6.16 14.4 14.44 c0 8.12 -5.68 14.84 -14.48 14.84 z M292.684 38.04 c3.6 0 8.52 -2.32 8.52 -10.08 c0 -8.16 -5.6 -14 -11.48 -14 c-3.6 0 -8.44 2.32 -8.44 10 c0 8.24 5.56 14.08 11.4 14.08 z M339.52000000000004 40.4 c-0.64 0 -1 -0.28 -1.44 -0.76 l-19.12 -20.28 l0 15.64 c0 2.68 1.6 3.16 3.8 3.68 c0.32 0.08 0.16 1.32 -0.24 1.32 l-9.28 0 c-0.32 0 -0.56 -1.2 -0.2 -1.32 c1.76 -0.52 3.32 -0.92 3.32 -3.68 l0 -15.68 c0 -2.72 -0.4 -4.2 -1.56 -5.64 c-0.32 -0.4 -0.64 -0.72 -0.64 -0.84 c0 -0.36 0.24 -0.84 0.76 -0.84 l2.88 0 c0.4 0 0.68 0.04 0.96 0.36 l18.72 20.08 l0 -15.48 c0 -2.84 -1.76 -3.16 -3.76 -3.68 c-0.32 -0.08 -0.16 -1.28 0.24 -1.28 l9.24 0 c0.36 0 0.56 1.2 0.24 1.28 c-1.8 0.52 -3.32 0.84 -3.32 3.68 l0 15.72 c0 2.56 0.08 5.48 0.48 6.96 c0.16 0.6 -0.48 0.76 -1.08 0.76 z M350.836 40 c-0.32 0 -0.56 -1.28 -0.24 -1.32 c2 -0.28 3.36 -1.04 3.36 -3.6 l0 -18.2 c0 -2.52 -1.36 -3.32 -3.36 -3.6 c-0.32 -0.04 -0.08 -1.28 0.24 -1.28 l10.68 0 c0.32 0 0.56 1.24 0.24 1.28 c-1.72 0.24 -3.32 0.8 -3.32 3.6 l0 18.2 c0 2.8 1.6 3.36 3.32 3.6 c0.32 0.04 0.08 1.32 -0.24 1.32 l-10.68 0 z">
        </path>
      </g>
      <g id="SvgjsG1010" featurekey="sloganFeature-0" transform="matrix(0.3206158524264202,0,0,0.3206158524264202,64.67938414757359,219.71721547317856)" fill="url(#SvgjsLinearGradient1028)">
        <path
          d="M1.26 20 c-0.14 0 -0.26 -0.12 -0.26 -0.26 l0 -11.98 c0 -0.14 0.12 -0.26 0.26 -0.26 l2.88 0 c0.1 0 0.2 0.06 0.24 0.14 l3 7.4 l2.98 -7.4 c0.04 -0.08 0.14 -0.14 0.24 -0.14 l2.88 0 c0.14 0 0.26 0.12 0.26 0.26 l0 11.98 c0 0.14 -0.12 0.26 -0.26 0.26 l-2.34 0 c-0.14 0 -0.26 -0.12 -0.26 -0.26 l0 -6.44 l-2.44 6.2 c-0.04 0.08 -0.14 0.14 -0.22 0.14 l-1.68 0 c-0.1 0 -0.2 -0.06 -0.24 -0.14 l-2.46 -6.2 l0 6.44 c0 0.14 -0.12 0.26 -0.26 0.26 l-2.32 0 z M29.266000000000002 20 c-0.08 0 -0.16 -0.04 -0.2 -0.12 c-0.06 -0.06 -0.06 -0.16 -0.04 -0.24 l4.66 -11.98 c0.04 -0.1 0.14 -0.16 0.24 -0.16 l2.68 0 c0.1 0 0.2 0.06 0.24 0.16 l4.58 11.98 c0.02 0.08 0.02 0.16 -0.04 0.24 c-0.04 0.08 -0.12 0.12 -0.2 0.12 l-2.78 0 c-0.1 0 -0.2 -0.06 -0.24 -0.16 l-0.74 -1.84 l-4.5 0.02 l-0.74 1.82 c-0.04 0.1 -0.14 0.16 -0.24 0.16 l-2.68 0 z M33.746 15.5 l2.88 0 l-1.44 -4.24 z M61.611999999999995 20 c-1.18 0 -2.26 -0.28 -3.22 -0.84 c-0.96 -0.58 -1.72 -1.36 -2.26 -2.34 s-0.82 -2.08 -0.82 -3.3 c0 -1.18 0.28 -2.28 0.84 -3.26 c0.56 -0.96 1.34 -1.74 2.3 -2.3 c0.98 -0.56 2.08 -0.84 3.24 -0.84 c0.88 0 1.74 0.2 2.58 0.56 c0.84 0.38 1.56 0.88 2.16 1.52 c0.08 0.1 0.08 0.24 0 0.34 l-1.9 1.56 c-0.06 0.06 -0.12 0.1 -0.2 0.1 s-0.16 -0.04 -0.2 -0.1 c-1.02 -1.24 -2.66 -1.5 -4.04 -0.64 c-1.2 0.74 -1.64 2.1 -1.58 3.46 c0.06 1.38 1.06 2.56 2.38 2.96 c1.2 0.36 2.38 0.08 3.24 -0.84 c0.06 -0.04 0.12 -0.08 0.2 -0.06 c0.08 0 0.14 0.02 0.18 0.08 l1.94 1.36 c0.08 0.1 0.08 0.24 0 0.34 c-0.64 0.68 -1.4 1.24 -2.24 1.64 c-0.86 0.4 -1.74 0.6 -2.6 0.6 z M82.038 20 c-0.14 0 -0.26 -0.12 -0.26 -0.26 l0 -11.98 c0 -0.14 0.12 -0.26 0.26 -0.26 l2.6 0 c0.14 0 0.26 0.12 0.26 0.26 l0 4.92 l4.52 0 l0 -4.92 c0 -0.14 0.12 -0.26 0.26 -0.26 l2.6 0 c0.14 0 0.26 0.12 0.26 0.26 l0 11.98 c0 0.14 -0.12 0.26 -0.26 0.26 l-2.6 0 c-0.14 0 -0.26 -0.12 -0.26 -0.26 l0 -4.3 l-4.52 0 l0 4.3 c0 0.14 -0.12 0.26 -0.26 0.26 l-2.6 0 z M108.06400000000001 20 c-0.14 0 -0.26 -0.12 -0.26 -0.26 l0 -11.98 c0 -0.14 0.12 -0.26 0.26 -0.26 l2.6 0 c0.14 0 0.26 0.12 0.26 0.26 l0 11.98 c0 0.14 -0.12 0.26 -0.26 0.26 l-2.6 0 z M126.45 20 c-0.14 0 -0.26 -0.12 -0.26 -0.26 l0 -11.98 c0 -0.14 0.12 -0.26 0.26 -0.26 l2.36 0 c0.08 0 0.16 0.04 0.22 0.1 l4.6 7.1 l0 -6.94 c0 -0.14 0.12 -0.26 0.26 -0.26 l2.46 0 c0.14 0 0.26 0.12 0.26 0.26 l0 11.98 c0 0.14 -0.12 0.26 -0.26 0.26 l-2.36 0 c-0.08 0 -0.16 -0.04 -0.22 -0.1 l-4.58 -7.06 l0 6.9 c0 0.14 -0.12 0.26 -0.26 0.26 l-2.48 0 z M151.876 20 l0 -11.98 c0 -0.5 0.1 -0.6 0.26 -0.6 l8.76 0 c0.14 0 0.26 0.1 0.26 0.24 l0 2.26 c0 0.14 -0.12 0.26 -0.26 0.26 l-5.92 0 l0 2.08 l3.74 0 c0.14 0 0.26 0.12 0.26 0.26 l0 2.24 c0 0.14 -0.12 0.26 -0.26 0.26 l-3.74 0 l0 2.14 l5.9 0 c0.14 0 0.26 0.12 0.26 0.26 l0 2.24 c0 0.14 -0.12 0.26 -0.26 0.26 l-8.74 0 c-0.16 0 -0.26 -0.12 -0.26 0.08 z M195.34799999999998 20 c-0.14 0 -0.26 -0.12 -0.26 -0.26 l0 -11.98 c0 -0.14 0.12 -0.26 0.26 -0.26 l2.6 0 c0.14 0 0.26 0.12 0.26 0.26 l0 9.36 l4.5 0 c0.14 0 0.26 0.12 0.26 0.26 l0 2.36 c0 0.14 -0.12 0.26 -0.26 0.26 l-7.36 0 z M218.23399999999998 20 l0 -11.98 c0 -0.5 0.1 -0.6 0.26 -0.6 l8.76 0 c0.14 0 0.26 0.1 0.26 0.24 l0 2.26 c0 0.14 -0.12 0.26 -0.26 0.26 l-5.92 0 l0 2.08 l3.74 0 c0.14 0 0.26 0.12 0.26 0.26 l0 2.24 c0 0.14 -0.12 0.26 -0.26 0.26 l-3.74 0 l0 2.14 l5.9 0 c0.14 0 0.26 0.12 0.26 0.26 l0 2.24 c0 0.14 -0.12 0.26 -0.26 0.26 l-8.74 0 c-0.16 0 -0.26 -0.12 -0.26 0.08 z M243.03999999999996 20 c-0.08 0 -0.16 -0.04 -0.2 -0.12 c-0.06 -0.06 -0.06 -0.16 -0.04 -0.24 l4.66 -11.98 c0.04 -0.1 0.14 -0.16 0.24 -0.16 l2.68 0 c0.1 0 0.2 0.06 0.24 0.16 l4.58 11.98 c0.02 0.08 0.02 0.16 -0.04 0.24 c-0.04 0.08 -0.12 0.12 -0.2 0.12 l-2.78 0 c-0.1 0 -0.2 -0.06 -0.24 -0.16 l-0.74 -1.84 l-4.5 0.02 l-0.74 1.82 c-0.04 0.1 -0.14 0.16 -0.24 0.16 l-2.68 0 z M247.51999999999998 15.5 l2.88 0 l-1.44 -4.24 z M270.54599999999994 20 c-0.16 0 -0.26 -0.12 -0.26 -0.26 l0 -11.98 c0 -0.14 0.1 -0.26 0.26 -0.26 l4.88 0 c1.52 0 2.72 0.38 3.56 1.16 c1.24 1.12 1.66 3.24 1.06 4.8 c-0.22 0.56 -0.6 1.08 -1.08 1.46 c-0.28 0.22 -0.58 0.38 -0.88 0.54 c0.86 1.36 2.16 4.12 2.16 4.12 c0.02 0.04 0.06 0.1 0.06 0.16 c0 0.14 -0.12 0.26 -0.26 0.26 l-2.96 0 c-0.08 0 -0.18 -0.06 -0.22 -0.14 l-1.74 -3.82 c-0.62 0.04 -1.1 0.02 -1.74 0.02 l0 3.68 c0 0.14 -0.12 0.26 -0.26 0.26 l-2.58 0 z M273.38599999999997 13.280000000000001 c0 0 2.52 0.28 3.4 -0.3 c0.34 -0.22 0.54 -0.76 0.54 -1.16 c-0.02 -0.44 -0.24 -0.9 -0.6 -1.18 c-0.38 -0.32 -1.32 -0.42 -1.8 -0.42 l-1.54 0.04 l0 3.02 z M295.8519999999999 20 c-0.14 0 -0.26 -0.12 -0.26 -0.26 l0 -11.98 c0 -0.14 0.12 -0.26 0.26 -0.26 l2.36 0 c0.08 0 0.16 0.04 0.22 0.1 l4.6 7.1 l0 -6.94 c0 -0.14 0.12 -0.26 0.26 -0.26 l2.46 0 c0.14 0 0.26 0.12 0.26 0.26 l0 11.98 c0 0.14 -0.12 0.26 -0.26 0.26 l-2.36 0 c-0.08 0 -0.16 -0.04 -0.22 -0.1 l-4.58 -7.06 l0 6.9 c0 0.14 -0.12 0.26 -0.26 0.26 l-2.48 0 z M321.5379999999999 20 c-0.14 0 -0.26 -0.12 -0.26 -0.26 l0 -11.98 c0 -0.14 0.12 -0.26 0.26 -0.26 l2.6 0 c0.14 0 0.26 0.12 0.26 0.26 l0 11.98 c0 0.14 -0.12 0.26 -0.26 0.26 l-2.6 0 z M339.9239999999999 20 c-0.14 0 -0.26 -0.12 -0.26 -0.26 l0 -11.98 c0 -0.14 0.12 -0.26 0.26 -0.26 l2.36 0 c0.08 0 0.16 0.04 0.22 0.1 l4.6 7.1 l0 -6.94 c0 -0.14 0.12 -0.26 0.26 -0.26 l2.46 0 c0.14 0 0.26 0.12 0.26 0.26 l0 11.98 c0 0.14 -0.12 0.26 -0.26 0.26 l-2.36 0 c-0.08 0 -0.16 -0.04 -0.22 -0.1 l-4.58 -7.06 l0 6.9 c0 0.14 -0.12 0.26 -0.26 0.26 l-2.48 0 z M371.7299999999999 20 c-1.18 0 -2.28 -0.28 -3.24 -0.84 c-0.98 -0.58 -1.74 -1.36 -2.3 -2.32 c-0.56 -0.98 -0.84 -2.1 -0.84 -3.3 s0.28 -2.3 0.86 -3.26 c0.56 -0.98 1.36 -1.76 2.34 -2.32 c1 -0.56 2.12 -0.84 3.34 -0.84 c0.88 0 1.74 0.16 2.6 0.5 c0.84 0.32 1.58 0.78 2.18 1.36 c0.1 0.08 0.12 0.22 0.04 0.34 l-1.46 1.92 c-0.06 0.06 -0.12 0.1 -0.2 0.12 c-0.06 0 -0.14 -0.04 -0.2 -0.08 c-0.4 -0.4 -0.86 -0.72 -1.4 -0.94 c-0.52 -0.22 -1.04 -0.34 -1.56 -0.34 c-0.62 0 -1.2 0.16 -1.7 0.46 c-0.52 0.32 -0.92 0.74 -1.22 1.28 s-0.44 1.14 -0.44 1.8 s0.14 1.28 0.44 1.82 s0.72 0.98 1.22 1.3 c0.52 0.3 1.1 0.46 1.7 0.46 c0.32 0 0.66 -0.06 1.04 -0.16 c0.32 -0.1 0.66 -0.24 0.96 -0.4 l0 -0.92 l-1.38 0 c-0.08 0 -0.14 -0.02 -0.18 -0.08 c-0.06 -0.04 -0.08 -0.1 -0.08 -0.18 l0.02 -2.24 c0 -0.14 0.12 -0.26 0.26 -0.26 l3.88 0 c0.14 0 0.26 0.12 0.26 0.26 l0 5.02 c0 0.08 -0.04 0.16 -0.12 0.22 c-0.62 0.48 -1.38 0.88 -2.26 1.16 c-0.88 0.3 -1.74 0.46 -2.56 0.46 z M410.6819999999999 20 l0 -11.98 c0 -0.5 0.1 -0.6 0.26 -0.6 l8.76 0 c0.14 0 0.26 0.1 0.26 0.24 l0 2.26 c0 0.14 -0.12 0.26 -0.26 0.26 l-5.92 0 l0 2.08 l3.74 0 c0.14 0 0.26 0.12 0.26 0.26 l0 2.24 c0 0.14 -0.12 0.26 -0.26 0.26 l-3.74 0 l0 2.14 l5.9 0 c0.14 0 0.26 0.12 0.26 0.26 l0 2.24 c0 0.14 -0.12 0.26 -0.26 0.26 l-8.74 0 c-0.16 0 -0.26 -0.12 -0.26 0.08 z M435.4879999999999 20 c-0.14 0 -0.26 -0.12 -0.26 -0.26 l0 -11.98 c0 -0.14 0.12 -0.26 0.26 -0.26 l2.36 0 c0.08 0 0.16 0.04 0.22 0.1 l4.6 7.1 l0 -6.94 c0 -0.14 0.12 -0.26 0.26 -0.26 l2.46 0 c0.14 0 0.26 0.12 0.26 0.26 l0 11.98 c0 0.14 -0.12 0.26 -0.26 0.26 l-2.36 0 c-0.08 0 -0.16 -0.04 -0.22 -0.1 l-4.58 -7.06 l0 6.9 c0 0.14 -0.12 0.26 -0.26 0.26 l-2.48 0 z M467.29399999999987 20 c-1.18 0 -2.28 -0.28 -3.24 -0.84 c-0.98 -0.58 -1.74 -1.36 -2.3 -2.32 c-0.56 -0.98 -0.84 -2.1 -0.84 -3.3 s0.28 -2.3 0.86 -3.26 c0.56 -0.98 1.36 -1.76 2.34 -2.32 c1 -0.56 2.12 -0.84 3.34 -0.84 c0.88 0 1.74 0.16 2.6 0.5 c0.84 0.32 1.58 0.78 2.18 1.36 c0.1 0.08 0.12 0.22 0.04 0.34 l-1.46 1.92 c-0.06 0.06 -0.12 0.1 -0.2 0.12 c-0.06 0 -0.14 -0.04 -0.2 -0.08 c-0.4 -0.4 -0.86 -0.72 -1.4 -0.94 c-0.52 -0.22 -1.04 -0.34 -1.56 -0.34 c-0.62 0 -1.2 0.16 -1.7 0.46 c-0.52 0.32 -0.92 0.74 -1.22 1.28 s-0.44 1.14 -0.44 1.8 s0.14 1.28 0.44 1.82 s0.72 0.98 1.22 1.3 c0.52 0.3 1.1 0.46 1.7 0.46 c0.32 0 0.66 -0.06 1.04 -0.16 c0.32 -0.1 0.66 -0.24 0.96 -0.4 l0 -0.92 l-1.38 0 c-0.08 0 -0.14 -0.02 -0.18 -0.08 c-0.06 -0.04 -0.08 -0.1 -0.08 -0.18 l0.02 -2.24 c0 -0.14 0.12 -0.26 0.26 -0.26 l3.88 0 c0.14 0 0.26 0.12 0.26 0.26 l0 5.02 c0 0.08 -0.04 0.16 -0.12 0.22 c-0.62 0.48 -1.38 0.88 -2.26 1.16 c-0.88 0.3 -1.74 0.46 -2.56 0.46 z M487.83999999999986 20 c-0.14 0 -0.26 -0.12 -0.26 -0.26 l0 -11.98 c0 -0.14 0.12 -0.26 0.26 -0.26 l2.6 0 c0.14 0 0.26 0.12 0.26 0.26 l0 11.98 c0 0.14 -0.12 0.26 -0.26 0.26 l-2.6 0 z M506.2259999999999 20 c-0.14 0 -0.26 -0.12 -0.26 -0.26 l0 -11.98 c0 -0.14 0.12 -0.26 0.26 -0.26 l2.36 0 c0.08 0 0.16 0.04 0.22 0.1 l4.6 7.1 l0 -6.94 c0 -0.14 0.12 -0.26 0.26 -0.26 l2.46 0 c0.14 0 0.26 0.12 0.26 0.26 l0 11.98 c0 0.14 -0.12 0.26 -0.26 0.26 l-2.36 0 c-0.08 0 -0.16 -0.04 -0.22 -0.1 l-4.58 -7.06 l0 6.9 c0 0.14 -0.12 0.26 -0.26 0.26 l-2.48 0 z M531.6519999999999 20 l0 -11.98 c0 -0.5 0.1 -0.6 0.26 -0.6 l8.76 0 c0.14 0 0.26 0.1 0.26 0.24 l0 2.26 c0 0.14 -0.12 0.26 -0.26 0.26 l-5.92 0 l0 2.08 l3.74 0 c0.14 0 0.26 0.12 0.26 0.26 l0 2.24 c0 0.14 -0.12 0.26 -0.26 0.26 l-3.74 0 l0 2.14 l5.9 0 c0.14 0 0.26 0.12 0.26 0.26 l0 2.24 c0 0.14 -0.12 0.26 -0.26 0.26 l-8.74 0 c-0.16 0 -0.26 -0.12 -0.26 0.08 z M556.198 20 l0 -11.98 c0 -0.5 0.1 -0.6 0.26 -0.6 l8.76 0 c0.14 0 0.26 0.1 0.26 0.24 l0 2.26 c0 0.14 -0.12 0.26 -0.26 0.26 l-5.92 0 l0 2.08 l3.74 0 c0.14 0 0.26 0.12 0.26 0.26 l0 2.24 c0 0.14 -0.12 0.26 -0.26 0.26 l-3.74 0 l0 2.14 l5.9 0 c0.14 0 0.26 0.12 0.26 0.26 l0 2.24 c0 0.14 -0.12 0.26 -0.26 0.26 l-8.74 0 c-0.16 0 -0.26 -0.12 -0.26 0.08 z M581.004 20 c-0.16 0 -0.26 -0.12 -0.26 -0.26 l0 -11.98 c0 -0.14 0.1 -0.26 0.26 -0.26 l4.88 0 c1.52 0 2.72 0.38 3.56 1.16 c1.24 1.12 1.66 3.24 1.06 4.8 c-0.22 0.56 -0.6 1.08 -1.08 1.46 c-0.28 0.22 -0.58 0.38 -0.88 0.54 c0.86 1.36 2.16 4.12 2.16 4.12 c0.02 0.04 0.06 0.1 0.06 0.16 c0 0.14 -0.12 0.26 -0.26 0.26 l-2.96 0 c-0.08 0 -0.18 -0.06 -0.22 -0.14 l-1.74 -3.82 c-0.62 0.04 -1.1 0.02 -1.74 0.02 l0 3.68 c0 0.14 -0.12 0.26 -0.26 0.26 l-2.58 0 z M583.844 13.280000000000001 c0 0 2.52 0.28 3.4 -0.3 c0.34 -0.22 0.54 -0.76 0.54 -1.16 c-0.02 -0.44 -0.24 -0.9 -0.6 -1.18 c-0.38 -0.32 -1.32 -0.42 -1.8 -0.42 l-1.54 0.04 l0 3.02 z">
        </path>
      </g>
      <g id="SvgjsG1011" featurekey="sloganFeature-1" transform="matrix(1.3,0,0,1.3,160,236)" fill="url(#SvgjsLinearGradient1032)">
        <path d=""></path>
      </g>
    </svg>
